<?xml version="1.0" standalone="no"?>
<!DOCTYPE svg PUBLIC "-//W3C//DTD SVG 20010904//EN"
 "http://www.w3.org/TR/2001/REC-SVG-20010904/DTD/svg10.dtd">
<svg version="1.0" xmlns="http://www.w3.org/2000/svg"
 width="1022.000000pt" height="219.000000pt" viewBox="0 0 1022.000000 219.000000"
 preserveAspectRatio="xMidYMid meet">

<g transform="translate(0.000000,219.000000) scale(0.100000,-0.100000)"
fill="#000000" stroke="none">
<path d="M205 2178 c-2 -7 -49 -413 -104 -901 l-100 -888 25 -27 c13 -15 86
-98 162 -184 l137 -157 257 -1 257 0 5 33 c3 17 10 86 16 152 29 355 55 603
63 611 2 3 18 -16 33 -41 l29 -45 108 0 c78 0 109 -3 113 -13 2 -7 -2 -82 -10
-167 l-14 -155 123 -186 123 -186 563 -6 c547 -7 1648 -10 1650 -4 0 1 4 141
9 312 16 516 22 625 35 625 7 0 22 -44 36 -112 l24 -113 83 -3 82 -3 0 -183
c0 -178 14 -289 65 -503 l5 -23 1185 0 1184 0 10 38 c64 237 76 301 81 442 l5
145 279 5 279 5 25 73 24 72 53 0 53 0 6 -72 c3 -40 11 -192 16 -338 6 -146
13 -289 16 -318 l5 -52 252 0 252 0 90 180 90 181 0 132 0 132 49 3 c27 2 53
-1 59 -7 6 -6 19 -146 30 -313 10 -167 21 -305 23 -307 3 -3 381 -7 840 -9
l836 -5 91 94 c50 52 158 171 240 264 83 94 155 173 160 176 6 4 3 59 -7 145
-16 134 -31 266 -61 539 -8 72 -20 166 -25 210 -6 44 -15 121 -20 170 -9 92
-32 290 -53 470 l-12 100 -260 2 -260 3 -139 -236 -139 -235 6 -79 c4 -44 3
-80 -2 -80 -12 0 -19 43 -36 235 -8 94 -20 211 -25 260 -5 50 -10 100 -10 113
l0 22 -957 -2 -957 -3 -19 -65 c-25 -87 -30 -92 -91 -88 l-51 3 -8 75 c-5 41
-9 75 -10 76 -1 1 -704 4 -1562 6 l-1560 3 -6 -228 c-4 -145 -10 -232 -17
-239 -15 -15 -42 7 -42 34 0 11 -7 60 -16 109 l-17 89 -98 0 c-66 0 -100 4
-105 12 -5 7 -17 60 -29 118 l-20 105 -1132 3 -1131 2 -6 -47 c-3 -27 -8 -78
-11 -115 l-7 -67 -131 -3 -132 -3 -3 -45 c-5 -77 -11 -79 -48 -12 l-35 62 -52
0 -52 0 -68 120 -69 120 -259 0 c-199 0 -261 -3 -264 -12z m439 -195 c-4 -49
-8 -101 -8 -118 l-1 -30 128 -3 127 -3 -7 -82 c-4 -45 -8 -98 -8 -117 l0 -35
130 0 130 0 11 115 c7 63 12 116 13 117 1 1 58 4 128 5 l128 3 7 50 c4 28 10
80 13 118 l7 67 169 0 169 0 0 -24 c0 -13 -27 -373 -60 -801 -33 -428 -60
-784 -60 -791 0 -11 -34 -14 -181 -14 l-180 0 6 52 c11 96 75 872 75 910 l0
38 -125 0 c-108 0 -125 -2 -134 -17 -5 -10 -12 -66 -16 -125 l-7 -108 -133 0
-133 0 5 43 c2 23 7 77 12 120 4 42 5 80 2 82 -2 3 -60 5 -128 5 -119 0 -124
-1 -132 -22 -4 -13 -30 -238 -57 -501 l-48 -477 -178 0 c-98 0 -178 4 -178 8
0 13 169 1532 175 1580 l6 42 171 0 170 0 -8 -87z m2054 80 l301 -6 -5 -131
c-8 -198 15 -176 -185 -176 -127 0 -171 -3 -174 -12 -7 -25 -56 -948 -50 -958
4 -6 76 -10 180 -10 l175 0 -5 -27 c-2 -16 -7 -86 -9 -158 -3 -71 -5 -133 -6
-137 0 -5 -244 -8 -541 -8 l-541 0 5 33 c3 17 9 82 12 142 3 61 9 123 12 138
l5 28 176 -2 177 -2 31 484 c18 266 30 487 27 492 -2 4 -81 7 -175 7 l-171 0
6 73 c4 39 9 109 13 155 l7 82 217 0 c119 0 352 -3 518 -7z m821 -115 l-4
-113 128 -3 127 -3 0 -119 0 -120 129 0 128 0 7 46 c3 26 6 125 6 220 0 95 3
179 6 188 5 14 30 16 175 16 l169 0 -5 -217 c-7 -285 -24 -1341 -22 -1373 l2
-25 -179 -3 -179 -2 4 372 4 373 -127 3 -128 3 0 119 0 120 -129 0 -130 0 -5
-52 c-3 -29 -10 -204 -16 -388 -9 -270 -17 -480 -20 -542 0 -5 -80 -8 -179 -8
l-178 0 4 48 c2 26 17 367 33 757 17 391 33 734 36 763 l5 52 171 0 170 0 -3
-112z m2261 -43 l0 -155 -432 -2 -433 -3 -3 -162 -2 -163 350 0 350 0 0 -160
0 -160 -352 -2 -353 -3 0 -160 0 -160 439 -3 c337 -2 442 -5 448 -15 4 -6 8
-83 8 -169 l0 -158 -188 0 c-104 0 -386 3 -627 7 l-438 6 7 736 c4 405 9 769
12 809 l6 72 604 0 604 0 0 -155z m1212 78 l3 -78 88 -3 87 -3 0 -27 c0 -15 7
-155 15 -312 8 -157 15 -288 15 -292 0 -4 -39 -9 -87 -10 l-88 -3 4 -77 3 -78
-353 -2 -354 -3 3 -165 c1 -91 5 -240 8 -332 l6 -168 -181 0 -181 0 0 143 c0
158 -17 1083 -24 1330 l-5 157 519 0 519 0 3 -77z m1558 49 c0 -10 27 -359 60
-775 33 -417 60 -773 60 -792 l0 -35 -174 0 -173 0 -6 58 c-4 31 -14 172 -22
312 -9 140 -21 265 -26 278 l-9 22 -254 0 c-162 0 -257 -4 -261 -10 -6 -9 18
-482 30 -607 l5 -53 -180 0 -180 0 0 24 c0 14 -18 375 -40 802 -22 428 -40
781 -40 786 0 4 272 8 605 8 578 0 605 -1 605 -18z m520 1 c0 -50 53 -599 59
-604 3 -4 120 -9 259 -13 220 -5 253 -4 258 9 4 8 -8 149 -25 313 -17 163 -31
300 -31 305 0 4 76 7 169 7 l169 0 6 -37 c7 -43 156 -1380 156 -1399 0 -10
-24 -14 -82 -16 l-83 -3 2 -82 2 -83 -533 0 -534 0 -6 38 c-3 20 -8 78 -11
127 -3 50 -8 107 -11 128 l-6 37 441 0 c273 0 442 4 446 10 6 9 -21 291 -30
317 -3 10 -83 13 -354 13 l-349 0 -7 68 c-3 37 -8 73 -10 80 -3 8 -30 12 -90
12 -61 0 -85 4 -86 13 0 6 -15 184 -32 395 l-33 382 173 0 c158 0 173 -2 173
-17z m-6923 -830 c-4 -32 -9 -111 -13 -175 -4 -77 -11 -122 -20 -129 -7 -5
-32 -9 -56 -7 l-43 3 1 65 c0 36 4 118 8 183 l8 117 60 0 61 0 -6 -57z m888
-75 c-3 -73 -8 -157 -11 -185 l-5 -53 -91 0 -91 0 7 146 c3 81 9 164 12 185
l7 39 89 0 89 0 -6 -132z m2785 115 c3 -3 5 -84 5 -181 l0 -177 -65 0 -65 0 2
35 c1 19 3 98 3 175 1 79 6 145 12 152 9 11 94 8 108 -4z"/>
<path d="M6308 1743 c-2 -5 -2 -78 1 -163 l6 -155 260 0 260 0 -1 145 c0 81
-3 154 -7 163 -6 15 -31 17 -261 17 -140 0 -256 -3 -258 -7z"/>
<path d="M7704 1653 c4 -49 9 -121 12 -160 l6 -73 264 0 265 0 -7 93 c-4 50
-9 121 -13 157 l-6 65 -263 3 -264 2 6 -87z"/>
</g>
</svg>
