<?xml version="1.0" standalone="no"?>
<!DOCTYPE svg PUBLIC "-//W3C//DTD SVG 20010904//EN"
 "http://www.w3.org/TR/2001/REC-SVG-20010904/DTD/svg10.dtd">
<svg version="1.0" xmlns="http://www.w3.org/2000/svg"
 width="1024.000000pt" height="262.000000pt" viewBox="0 0 1024.000000 262.000000"
 preserveAspectRatio="xMidYMid meet">

<g transform="translate(0.000000,262.000000) scale(0.100000,-0.100000)"
fill="#000000" stroke="none">
<path d="M285 2608 c-2 -7 -67 -452 -144 -989 l-140 -977 157 -321 157 -321
816 0 816 0 7 31 c3 17 6 48 6 68 0 77 5 82 78 79 l65 -3 23 -78 c13 -42 26
-82 29 -87 4 -6 222 -10 616 -10 l609 0 0 38 c0 20 3 61 6 89 l7 53 82 0 83 0
12 -72 c6 -40 12 -80 13 -88 2 -13 170 -15 1433 -18 l1431 -2 14 87 14 88 85
0 85 0 3 -65 c1 -36 4 -75 7 -87 l5 -23 1633 0 1632 0 157 321 158 321 -81
561 c-45 309 -86 597 -91 640 l-11 77 -43 0 c-23 0 -45 4 -48 9 -4 5 10 46 29
91 l35 81 -35 247 c-20 136 -37 253 -40 260 -3 9 -342 12 -1649 12 l-1644 0
-6 -67 c-11 -109 -6 -103 -101 -103 -96 0 -95 -1 -95 108 l0 62 -1750 0
c-1393 0 -1750 -3 -1750 -12 0 -85 -92 -1394 -98 -1400 -5 -5 -53 -7 -108 -6
l-99 3 3 110 c2 61 8 146 13 190 5 44 12 157 15 250 l6 170 -71 343 c-39 188
-71 345 -71 347 0 3 -509 5 -1130 5 -896 0 -1132 -3 -1135 -12z m1545 -160 c0
-13 -7 -84 -15 -158 -8 -74 -15 -138 -15 -142 0 -5 -232 -8 -515 -8 -404 0
-517 -3 -520 -12 -5 -15 -135 -1027 -135 -1052 0 -14 32 -16 319 -16 l320 0 6
43 c18 135 35 310 30 318 -4 5 -95 9 -211 9 -156 0 -204 3 -204 13 0 6 9 82
20 167 11 85 20 158 20 163 0 4 187 7 415 7 l415 0 0 -30 c0 -23 -69 -756 -94
-990 -2 -25 -5 -53 -5 -62 -1 -17 -44 -18 -756 -18 -415 0 -755 3 -755 7 0 13
240 1727 246 1756 l6 27 714 0 714 0 0 -22z m615 -30 c-7 -63 -105 -1309 -105
-1338 0 -20 6 -20 319 -20 l320 0 5 43 c3 23 21 312 41 642 19 330 37 628 41
663 l6 62 199 0 199 0 0 -57 c0 -32 -16 -377 -35 -767 -19 -390 -35 -722 -35
-738 l0 -28 -94 0 c-123 0 -126 -1 -126 -60 0 -26 -3 -68 -6 -94 l-7 -46 -534
0 -535 0 3 98 4 97 -102 3 c-92 2 -103 5 -103 21 0 10 32 364 70 786 39 422
70 772 70 777 0 4 93 8 206 8 l205 0 -6 -52z m2465 -113 l0 -165 -200 0 c-180
0 -200 -2 -208 -17 -6 -10 -13 -253 -17 -540 l-7 -523 210 0 211 0 3 -178 c2
-97 1 -183 -1 -189 -2 -10 -141 -13 -649 -13 l-645 0 6 113 c4 61 7 147 7 190
l0 77 215 0 c118 0 215 3 216 8 4 39 33 1065 30 1068 -2 2 -96 4 -209 4 l-205
0 7 77 c3 42 6 116 6 165 l0 88 615 0 615 0 0 -165z m1440 99 c0 -101 3 -104
115 -104 l93 0 6 -62 c6 -62 56 -1262 56 -1325 l0 -32 -102 -3 -103 -3 -3 -97
-3 -98 -644 0 -645 0 0 895 0 895 615 0 615 0 0 -66z m1850 52 c0 -16 17 -199
25 -268 l6 -48 -518 -2 -518 -3 4 -90 c2 -49 6 -128 10 -175 l6 -85 418 -3
c229 -1 417 -3 417 -5 4 -33 30 -317 30 -329 0 -17 -28 -18 -417 -20 l-418 -3
2 -140 c2 -77 5 -159 8 -182 l6 -43 533 0 533 0 12 -138 c7 -75 15 -161 18
-189 l6 -53 -757 0 -756 0 0 28 c0 15 -18 392 -40 837 -22 446 -40 836 -40
868 l0 57 715 0 c605 0 715 -2 715 -14z m1644 -13 c3 -16 12 -80 21 -143 8
-63 18 -125 20 -137 l5 -23 -514 0 c-283 0 -517 -3 -519 -8 -3 -4 3 -81 14
-172 10 -91 19 -168 19 -172 0 -5 236 -8 525 -8 289 0 525 -3 525 -7 0 -5 34
-249 75 -543 41 -294 75 -538 75 -542 0 -5 -340 -8 -755 -8 -712 0 -755 1
-755 18 0 9 -7 78 -15 152 -8 74 -15 152 -15 173 l0 37 530 0 c498 0 530 1
530 18 0 31 -41 335 -46 344 -3 4 -241 8 -529 8 l-524 0 -6 43 c-6 46 -95 964
-95 984 0 10 149 13 714 13 l714 0 6 -27z m-5900 -1129 c-1 -123 10 -115 -156
-112 l-143 3 -3 35 c-2 19 -1 63 3 98 l7 63 146 -3 147 -3 -1 -81z m1074 -2
c2 -53 -1 -89 -9 -98 -17 -21 -361 -20 -379 1 -8 10 -10 38 -5 100 l7 85 192
-2 191 -3 3 -83z m3159 -94 c-3 -8 -6 -5 -6 6 -1 11 2 17 5 13 3 -3 4 -12 1
-19z"/>
<path d="M5538 2135 c-7 -7 1 -975 8 -1032 l5 -43 320 0 319 0 0 47 c0 108
-31 1009 -35 1021 -3 9 -74 12 -308 12 -167 0 -306 -2 -309 -5z m467 -835 l0
-95 -170 0 -170 0 -3 98 -3 97 173 -2 173 -3 0 -95z"/>
</g>
</svg>
